<svg width="309" height="70" viewBox="0 0 309 70" fill="none" xmlns="http://www.w3.org/2000/svg">
<path d="M24.9139 43.24C24.9139 42.5106 24.8016 41.856 24.5772 41.2762C24.3715 40.6777 23.9787 40.1353 23.3989 39.649C22.8191 39.1441 22.0056 38.6484 20.9582 38.1622C19.9108 37.6759 18.5549 37.1709 16.8903 36.6472C15.0387 36.0487 13.2806 35.3754 11.6161 34.6273C9.97023 33.8792 8.5114 33.0095 7.2396 32.0182C5.9865 31.0083 4.99525 29.8394 4.26584 28.5114C3.55513 27.1835 3.19977 25.6406 3.19977 23.8825C3.19977 22.1805 3.57383 20.6375 4.32195 19.2535C5.07006 17.8508 6.11743 16.6538 7.46403 15.6625C8.81064 14.6526 10.4004 13.8764 12.2333 13.334C14.0849 12.7916 16.1141 12.5205 18.3211 12.5205C21.3322 12.5205 23.96 13.0628 26.2044 14.1476C28.4487 15.2324 30.1881 16.7193 31.4225 18.6083C32.6756 20.4972 33.3021 22.6574 33.3021 25.0888H24.9419C24.9419 23.8918 24.6894 22.8445 24.1844 21.9467C23.6982 21.0303 22.95 20.3102 21.9401 19.7865C20.9488 19.2629 19.6957 19.001 18.1808 19.001C16.722 19.001 15.5063 19.2255 14.5337 19.6743C13.5612 20.1045 12.8318 20.6936 12.3455 21.4417C11.8592 22.1712 11.6161 22.9941 11.6161 23.9105C11.6161 24.6025 11.7844 25.2291 12.1211 25.7902C12.4764 26.3513 13.0001 26.8749 13.6921 27.3612C14.3841 27.8475 15.2351 28.3057 16.2451 28.7359C17.255 29.1661 18.4239 29.5869 19.7519 29.9983C21.9775 30.6716 23.932 31.4291 25.6152 32.2707C27.3172 33.1124 28.7386 34.0569 29.8795 35.1042C31.0204 36.1516 31.8807 37.3392 32.4605 38.6671C33.0403 39.995 33.3302 41.5006 33.3302 43.1839C33.3302 44.9607 32.9842 46.5504 32.2922 47.9531C31.6001 49.3558 30.5995 50.5435 29.2903 51.516C27.9811 52.4886 26.4194 53.2274 24.6053 53.7323C22.7911 54.2373 20.7618 54.4898 18.5175 54.4898C16.4975 54.4898 14.5057 54.228 12.5419 53.7043C10.5781 53.1619 8.79194 52.3483 7.18349 51.2635C5.59374 50.1788 4.32195 48.7948 3.3681 47.1115C2.41425 45.4282 1.93732 43.4364 1.93732 41.1359H10.3817C10.3817 42.4077 10.5781 43.4831 10.9708 44.3622C11.3636 45.2412 11.9153 45.9519 12.626 46.4943C13.3555 47.0367 14.2158 47.4294 15.207 47.6726C16.217 47.9157 17.3205 48.0373 18.5175 48.0373C19.9763 48.0373 21.1733 47.8316 22.1084 47.4201C23.0623 47.0086 23.7636 46.4382 24.2125 45.7088C24.6801 44.9794 24.9139 44.1564 24.9139 43.24ZM56.5031 46.6626V23.5739H64.5827V53.9287H56.98L56.5031 46.6626ZM57.4008 40.4346L59.7854 40.3784C59.7854 42.3984 59.5517 44.278 59.0841 46.0174C58.6165 47.738 57.9151 49.2343 56.98 50.5061C56.0449 51.7592 54.8666 52.7411 53.4452 53.4518C52.0237 54.1438 50.3498 54.4898 48.4234 54.4898C46.9459 54.4898 45.5806 54.2841 44.3275 53.8726C43.0931 53.4424 42.027 52.7785 41.1293 51.8807C40.2502 50.9643 39.5582 49.7954 39.0533 48.3739C38.567 46.9338 38.3238 45.2038 38.3238 43.1839V23.5739H46.4035V43.24C46.4035 44.1377 46.5064 44.8952 46.7121 45.5124C46.9365 46.1296 47.2451 46.6346 47.6379 47.0273C48.0307 47.4201 48.4889 47.7006 49.0126 47.869C49.5549 48.0373 50.1534 48.1215 50.808 48.1215C52.4726 48.1215 53.7818 47.7848 54.7357 47.1115C55.7082 46.4382 56.3909 45.5218 56.7836 44.3622C57.1951 43.1839 57.4008 41.8747 57.4008 40.4346ZM71.2036 23.5739H79.3113V55.7522C79.3113 57.9966 78.8998 59.8949 78.0769 61.4473C77.254 62.9996 76.0663 64.1779 74.514 64.9821C72.9616 65.7864 71.082 66.1885 68.8751 66.1885C68.183 66.1885 67.5097 66.1511 66.8551 66.0763C66.1818 66.0014 65.4898 65.8799 64.7791 65.7115L64.8072 59.5115C65.256 59.5863 65.6956 59.6425 66.1257 59.6799C66.5372 59.736 66.958 59.764 67.3882 59.764C68.2298 59.764 68.9312 59.6237 69.4923 59.3432C70.0533 59.0627 70.4742 58.6231 70.7547 58.0246C71.0539 57.4449 71.2036 56.6874 71.2036 55.7522V23.5739ZM70.5583 15.6625C70.5583 14.4843 70.9698 13.5117 71.7927 12.7449C72.6343 11.9781 73.7378 11.5947 75.1031 11.5947C76.4871 11.5947 77.5906 11.9781 78.4135 12.7449C79.2365 13.5117 79.6479 14.4843 79.6479 15.6625C79.6479 16.8408 79.2365 17.8134 78.4135 18.5802C77.5906 19.347 76.4871 19.7304 75.1031 19.7304C73.7378 19.7304 72.6343 19.347 71.7927 18.5802C70.9698 17.8134 70.5583 16.8408 70.5583 15.6625ZM99.7068 54.4898C97.3502 54.4898 95.2368 54.1157 93.3665 53.3676C91.4962 52.6008 89.9065 51.5441 88.5973 50.1975C87.3068 48.8509 86.3155 47.2892 85.6235 45.5124C84.9315 43.7169 84.5855 41.8092 84.5855 39.7893V38.6671C84.5855 36.3667 84.9128 34.2626 85.5674 32.3549C86.222 30.4472 87.1572 28.792 88.3728 27.3893C89.6072 25.9866 91.1035 24.9111 92.8615 24.163C94.6196 23.3962 96.6021 23.0128 98.8091 23.0128C100.96 23.0128 102.868 23.3681 104.532 24.0789C106.197 24.7896 107.59 25.7995 108.712 27.1087C109.853 28.4179 110.713 29.989 111.293 31.8219C111.873 33.636 112.163 35.656 112.163 37.8816V41.2481H88.0362V35.8617H104.224V35.2445C104.224 34.1223 104.018 33.1217 103.606 32.2427C103.214 31.3449 102.615 30.6342 101.811 30.1105C101.007 29.5869 99.978 29.325 98.7249 29.325C97.6588 29.325 96.7424 29.5588 95.9756 30.0264C95.2088 30.494 94.5822 31.1486 94.0959 31.9902C93.6284 32.8318 93.273 33.8231 93.0299 34.964C92.8054 36.0861 92.6932 37.3205 92.6932 38.6671V39.7893C92.6932 41.005 92.8615 42.1272 93.1982 43.1558C93.5536 44.1845 94.0492 45.0729 94.6851 45.821C95.3397 46.5691 96.1252 47.1489 97.0416 47.5604C97.9768 47.9718 99.0335 48.1776 100.212 48.1776C101.671 48.1776 103.027 47.897 104.28 47.3359C105.551 46.7561 106.646 45.8865 107.562 44.7269L111.49 48.9911C110.854 49.9076 109.984 50.7866 108.881 51.6283C107.796 52.4699 106.487 53.1619 104.953 53.7043C103.419 54.228 101.671 54.4898 99.7068 54.4898ZM125.292 23.5739V53.9287H117.185V23.5739H125.292ZM116.68 15.6625C116.68 14.4843 117.091 13.5117 117.914 12.7449C118.737 11.9781 119.84 11.5947 121.225 11.5947C122.59 11.5947 123.684 11.9781 124.507 12.7449C125.349 13.5117 125.769 14.4843 125.769 15.6625C125.769 16.8408 125.349 17.8134 124.507 18.5802C123.684 19.347 122.59 19.7304 121.225 19.7304C119.84 19.7304 118.737 19.347 117.914 18.5802C117.091 17.8134 116.68 16.8408 116.68 15.6625ZM146.838 23.5739V29.297H129.164V23.5739H146.838ZM133.54 16.0834H141.62V44.783C141.62 45.662 141.732 46.3353 141.957 46.8029C142.2 47.2705 142.555 47.5978 143.023 47.7848C143.49 47.9531 144.079 48.0373 144.79 48.0373C145.295 48.0373 145.744 48.0186 146.137 47.9812C146.548 47.9251 146.894 47.869 147.175 47.8129L147.203 53.7604C146.511 53.9848 145.763 54.1625 144.959 54.2934C144.154 54.4243 143.266 54.4898 142.293 54.4898C140.517 54.4898 138.964 54.1999 137.636 53.6201C136.327 53.0216 135.317 52.0678 134.606 50.7586C133.896 49.4494 133.54 47.7287 133.54 45.5966V16.0834ZM149.419 39.0599V38.4708C149.419 36.2451 149.737 34.1971 150.373 32.3268C151.009 30.4378 151.935 28.8013 153.15 27.4173C154.366 26.0333 155.862 24.9579 157.639 24.1911C159.416 23.4056 161.454 23.0128 163.755 23.0128C166.055 23.0128 168.103 23.4056 169.899 24.1911C171.694 24.9579 173.2 26.0333 174.416 27.4173C175.65 28.8013 176.585 30.4378 177.221 32.3268C177.857 34.1971 178.175 36.2451 178.175 38.4708V39.0599C178.175 41.2668 177.857 43.3148 177.221 45.2038C176.585 47.0741 175.65 48.7106 174.416 50.1133C173.2 51.4973 171.704 52.5727 169.927 53.3396C168.15 54.1064 166.112 54.4898 163.811 54.4898C161.511 54.4898 159.463 54.1064 157.667 53.3396C155.89 52.5727 154.385 51.4973 153.15 50.1133C151.935 48.7106 151.009 47.0741 150.373 45.2038C149.737 43.3148 149.419 41.2668 149.419 39.0599ZM157.499 38.4708V39.0599C157.499 40.3317 157.611 41.5193 157.835 42.6228C158.06 43.7263 158.415 44.6988 158.902 45.5405C159.407 46.3634 160.061 47.0086 160.865 47.4762C161.67 47.9438 162.651 48.1776 163.811 48.1776C164.933 48.1776 165.896 47.9438 166.701 47.4762C167.505 47.0086 168.15 46.3634 168.636 45.5405C169.123 44.6988 169.478 43.7263 169.702 42.6228C169.946 41.5193 170.067 40.3317 170.067 39.0599V38.4708C170.067 37.2364 169.946 36.0768 169.702 34.992C169.478 33.8885 169.113 32.916 168.608 32.0744C168.122 31.214 167.477 30.5407 166.673 30.0544C165.868 29.5682 164.896 29.325 163.755 29.325C162.614 29.325 161.642 29.5682 160.837 30.0544C160.052 30.5407 159.407 31.214 158.902 32.0744C158.415 32.916 158.06 33.8885 157.835 34.992C157.611 36.0768 157.499 37.2364 157.499 38.4708Z" fill="white"/>
<g filter="url(#filter0_d_509_52)">
<path d="M183.793 40.0116H173.385V33.4468H183.793C185.402 33.4468 186.711 33.185 187.721 32.6613C188.731 32.1189 189.469 31.3708 189.937 30.417C190.405 29.4631 190.638 28.3877 190.638 27.1907C190.638 25.975 190.405 24.8435 189.937 23.7961C189.469 22.7488 188.731 21.9071 187.721 21.2712C186.711 20.6353 185.402 20.3174 183.793 20.3174H176.303V54.5718H167.886V13.7246H183.793C186.991 13.7246 189.731 14.3044 192.013 15.464C194.314 16.6049 196.072 18.1853 197.287 20.2052C198.503 22.2251 199.111 24.5349 199.111 27.1346C199.111 29.7717 198.503 32.0535 197.287 33.9799C196.072 35.9063 194.314 37.3931 192.013 38.4405C189.731 39.4879 186.991 40.0116 183.793 40.0116ZM212.942 24.2169V54.5718H204.834V24.2169H212.942ZM204.329 16.3056C204.329 15.1273 204.74 14.1548 205.563 13.388C206.386 12.6211 207.49 12.2377 208.874 12.2377C210.239 12.2377 211.333 12.6211 212.156 13.388C212.998 14.1548 213.419 15.1273 213.419 16.3056C213.419 17.4839 212.998 18.4564 212.156 19.2233C211.333 19.9901 210.239 20.3735 208.874 20.3735C207.49 20.3735 206.386 19.9901 205.563 19.2233C204.74 18.4564 204.329 17.4839 204.329 16.3056ZM243.773 48.2595V54.5718H220.713V48.2595H243.773ZM243.325 28.874L223.967 54.5718H218.552V49.7745L237.826 24.2169H243.325V28.874ZM240.463 24.2169V30.5572H219.001V24.2169H240.463ZM273.006 48.2595V54.5718H249.945V48.2595H273.006ZM272.557 28.874L253.2 54.5718H247.785V49.7745L267.059 24.2169H272.557V28.874ZM269.696 24.2169V30.5572H248.234V24.2169H269.696ZM294.468 47.7265V34.2043C294.468 33.2318 294.309 32.3995 293.991 31.7075C293.673 30.9968 293.177 30.445 292.504 30.0523C291.849 29.6595 290.998 29.4631 289.951 29.4631C289.053 29.4631 288.277 29.6221 287.622 29.94C286.968 30.2393 286.463 30.6788 286.107 31.2586C285.752 31.8197 285.574 32.4836 285.574 33.2505H277.495C277.495 31.96 277.794 30.7349 278.392 29.5753C278.991 28.4157 279.861 27.3964 281.002 26.5174C282.142 25.6197 283.498 24.9183 285.069 24.4133C286.659 23.9083 288.436 23.6559 290.4 23.6559C292.756 23.6559 294.851 24.0486 296.684 24.8341C298.517 25.6197 299.957 26.7979 301.004 28.369C302.07 29.94 302.603 31.9038 302.603 34.2604V47.2496C302.603 48.9141 302.706 50.2795 302.912 51.3455C303.118 52.3929 303.417 53.3093 303.81 54.0949V54.5718H295.646C295.253 53.7488 294.954 52.7202 294.748 51.4858C294.561 50.2327 294.468 48.9796 294.468 47.7265ZM295.534 36.0839L295.59 40.6568H291.073C290.007 40.6568 289.081 40.7784 288.296 41.0215C287.51 41.2647 286.865 41.6107 286.36 42.0595C285.855 42.4897 285.481 42.9947 285.238 43.5745C285.013 44.1543 284.901 44.7902 284.901 45.4822C284.901 46.1742 285.06 46.8007 285.378 47.3618C285.696 47.9042 286.154 48.3344 286.753 48.6523C287.351 48.9516 288.053 49.1012 288.857 49.1012C290.072 49.1012 291.129 48.858 292.027 48.3718C292.925 47.8855 293.617 47.287 294.103 46.5763C294.608 45.8656 294.87 45.1923 294.888 44.5564L297.021 47.979C296.721 48.7458 296.31 49.5407 295.786 50.3636C295.281 51.1865 294.636 51.9627 293.85 52.6921C293.065 53.4028 292.12 53.992 291.017 54.4596C289.913 54.9084 288.604 55.1329 287.089 55.1329C285.163 55.1329 283.414 54.7495 281.843 53.9826C280.291 53.1971 279.056 52.1217 278.14 50.7564C277.242 49.3724 276.793 47.8013 276.793 46.0432C276.793 44.4535 277.093 43.0414 277.691 41.807C278.29 40.5726 279.169 39.5346 280.328 38.693C281.507 37.8327 282.975 37.1874 284.733 36.7573C286.491 36.3084 288.529 36.0839 290.849 36.0839H295.534Z" fill="#FF3F4B"/>
</g>
<defs>
<filter id="filter0_d_509_52" x="162.101" y="5.80922" width="146.209" height="53.1807" filterUnits="userSpaceOnUse" color-interpolation-filters="sRGB">
<feFlood flood-opacity="0" result="BackgroundImageFix"/>
<feColorMatrix in="SourceAlpha" type="matrix" values="0 0 0 0 0 0 0 0 0 0 0 0 0 0 0 0 0 0 127 0" result="hardAlpha"/>
<feOffset dx="-0.642857" dy="-1.28571"/>
<feGaussianBlur stdDeviation="2.57143"/>
<feComposite in2="hardAlpha" operator="out"/>
<feColorMatrix type="matrix" values="0 0 0 0 0 0 0 0 0 0 0 0 0 0 0 0 0 0 0.5 0"/>
<feBlend mode="normal" in2="BackgroundImageFix" result="effect1_dropShadow_509_52"/>
<feBlend mode="normal" in="SourceGraphic" in2="effect1_dropShadow_509_52" result="shape"/>
</filter>
</defs>
</svg>
